<svg xmlns="http://www.w3.org/2000/svg" width="2200" height="1424" viewBox="0 0 2200 1424">
<title>E-701 3D views / Cable tray coordination</title>
<rect x="0.0" y="0.0" width="2200.0" height="1424.0" fill="#fff" stroke="#000000" stroke-width="0"/>
<rect x="18.0" y="18.0" width="2164.0" height="1388.0" fill="none" stroke="#000000" stroke-width="1"/>
<rect x="32.0" y="32.0" width="2136.0" height="1360.0" fill="none" stroke="#000000" stroke-width="3"/>
<text x="145.6" y="28.0" font-family="Arial, Helvetica, sans-serif" font-size="11" font-weight="normal" text-anchor="middle" fill="#000000">8</text>
<text x="145.6" y="1403.0" font-family="Arial, Helvetica, sans-serif" font-size="11" font-weight="normal" text-anchor="middle" fill="#000000">8</text>
<text x="372.9" y="28.0" font-family="Arial, Helvetica, sans-serif" font-size="11" font-weight="normal" text-anchor="middle" fill="#000000">7</text>
<text x="372.9" y="1403.0" font-family="Arial, Helvetica, sans-serif" font-size="11" font-weight="normal" text-anchor="middle" fill="#000000">7</text>
<line x1="259.2" y1="18.0" x2="259.2" y2="32.0" stroke="#000000" stroke-width="1"/>
<line x1="259.2" y1="1392.0" x2="259.2" y2="1406.0" stroke="#000000" stroke-width="1"/>
<text x="600.1" y="28.0" font-family="Arial, Helvetica, sans-serif" font-size="11" font-weight="normal" text-anchor="middle" fill="#000000">6</text>
<text x="600.1" y="1403.0" font-family="Arial, Helvetica, sans-serif" font-size="11" font-weight="normal" text-anchor="middle" fill="#000000">6</text>
<line x1="486.5" y1="18.0" x2="486.5" y2="32.0" stroke="#000000" stroke-width="1"/>
<line x1="486.5" y1="1392.0" x2="486.5" y2="1406.0" stroke="#000000" stroke-width="1"/>
<text x="827.4" y="28.0" font-family="Arial, Helvetica, sans-serif" font-size="11" font-weight="normal" text-anchor="middle" fill="#000000">5</text>
<text x="827.4" y="1403.0" font-family="Arial, Helvetica, sans-serif" font-size="11" font-weight="normal" text-anchor="middle" fill="#000000">5</text>
<line x1="713.8" y1="18.0" x2="713.8" y2="32.0" stroke="#000000" stroke-width="1"/>
<line x1="713.8" y1="1392.0" x2="713.8" y2="1406.0" stroke="#000000" stroke-width="1"/>
<text x="1054.6" y="28.0" font-family="Arial, Helvetica, sans-serif" font-size="11" font-weight="normal" text-anchor="middle" fill="#000000">4</text>
<text x="1054.6" y="1403.0" font-family="Arial, Helvetica, sans-serif" font-size="11" font-weight="normal" text-anchor="middle" fill="#000000">4</text>
<line x1="941.0" y1="18.0" x2="941.0" y2="32.0" stroke="#000000" stroke-width="1"/>
<line x1="941.0" y1="1392.0" x2="941.0" y2="1406.0" stroke="#000000" stroke-width="1"/>
<text x="1281.9" y="28.0" font-family="Arial, Helvetica, sans-serif" font-size="11" font-weight="normal" text-anchor="middle" fill="#000000">3</text>
<text x="1281.9" y="1403.0" font-family="Arial, Helvetica, sans-serif" font-size="11" font-weight="normal" text-anchor="middle" fill="#000000">3</text>
<line x1="1168.2" y1="18.0" x2="1168.2" y2="32.0" stroke="#000000" stroke-width="1"/>
<line x1="1168.2" y1="1392.0" x2="1168.2" y2="1406.0" stroke="#000000" stroke-width="1"/>
<text x="1509.1" y="28.0" font-family="Arial, Helvetica, sans-serif" font-size="11" font-weight="normal" text-anchor="middle" fill="#000000">2</text>
<text x="1509.1" y="1403.0" font-family="Arial, Helvetica, sans-serif" font-size="11" font-weight="normal" text-anchor="middle" fill="#000000">2</text>
<line x1="1395.5" y1="18.0" x2="1395.5" y2="32.0" stroke="#000000" stroke-width="1"/>
<line x1="1395.5" y1="1392.0" x2="1395.5" y2="1406.0" stroke="#000000" stroke-width="1"/>
<text x="1736.4" y="28.0" font-family="Arial, Helvetica, sans-serif" font-size="11" font-weight="normal" text-anchor="middle" fill="#000000">1</text>
<text x="1736.4" y="1403.0" font-family="Arial, Helvetica, sans-serif" font-size="11" font-weight="normal" text-anchor="middle" fill="#000000">1</text>
<line x1="1622.8" y1="18.0" x2="1622.8" y2="32.0" stroke="#000000" stroke-width="1"/>
<line x1="1622.8" y1="1392.0" x2="1622.8" y2="1406.0" stroke="#000000" stroke-width="1"/>
<text x="25.0" y="149.3" font-family="Arial, Helvetica, sans-serif" font-size="11" font-weight="normal" text-anchor="middle" fill="#000000">A</text>
<text x="2175.0" y="149.3" font-family="Arial, Helvetica, sans-serif" font-size="11" font-weight="normal" text-anchor="middle" fill="#000000">A</text>
<text x="25.0" y="376.0" font-family="Arial, Helvetica, sans-serif" font-size="11" font-weight="normal" text-anchor="middle" fill="#000000">B</text>
<text x="2175.0" y="376.0" font-family="Arial, Helvetica, sans-serif" font-size="11" font-weight="normal" text-anchor="middle" fill="#000000">B</text>
<text x="25.0" y="602.7" font-family="Arial, Helvetica, sans-serif" font-size="11" font-weight="normal" text-anchor="middle" fill="#000000">C</text>
<text x="2175.0" y="602.7" font-family="Arial, Helvetica, sans-serif" font-size="11" font-weight="normal" text-anchor="middle" fill="#000000">C</text>
<text x="25.0" y="829.3" font-family="Arial, Helvetica, sans-serif" font-size="11" font-weight="normal" text-anchor="middle" fill="#000000">D</text>
<text x="2175.0" y="829.3" font-family="Arial, Helvetica, sans-serif" font-size="11" font-weight="normal" text-anchor="middle" fill="#000000">D</text>
<text x="25.0" y="1056.0" font-family="Arial, Helvetica, sans-serif" font-size="11" font-weight="normal" text-anchor="middle" fill="#000000">E</text>
<text x="2175.0" y="1056.0" font-family="Arial, Helvetica, sans-serif" font-size="11" font-weight="normal" text-anchor="middle" fill="#000000">E</text>
<text x="25.0" y="1282.7" font-family="Arial, Helvetica, sans-serif" font-size="11" font-weight="normal" text-anchor="middle" fill="#000000">F</text>
<text x="2175.0" y="1282.7" font-family="Arial, Helvetica, sans-serif" font-size="11" font-weight="normal" text-anchor="middle" fill="#000000">F</text>
<g><polygon points="657.5,180.0 1558.2,700.0 1542.6,709.0 641.9,189.0" fill="#d9d9d9" stroke="#000000" stroke-width="1"/><polygon points="641.9,249.0 1542.6,769.0 1542.6,709.0 641.9,189.0" fill="#bdbdbd" stroke="#000000" stroke-width="1"/><polygon points="1558.2,760.0 1542.6,769.0 1542.6,709.0 1558.2,700.0" fill="#a8a8a8" stroke="#000000" stroke-width="1"/><polygon points="259.1,410.0 1159.8,930.0 1144.2,939.0 243.6,419.0" fill="#d9d9d9" stroke="#000000" stroke-width="1"/><polygon points="243.6,479.0 1144.2,999.0 1144.2,939.0 243.6,419.0" fill="#bdbdbd" stroke="#000000" stroke-width="1"/><polygon points="1159.8,990.0 1144.2,999.0 1144.2,939.0 1159.8,930.0" fill="#a8a8a8" stroke="#000000" stroke-width="1"/><polygon points="692.2,174.0 699.1,178.0 285.1,417.0 278.2,413.0" fill="#e4e4e4" stroke="#000000" stroke-width="0.6"/><polygon points="278.2,439.0 285.1,443.0 285.1,417.0 278.2,413.0" fill="#c8c8c8" stroke="#000000" stroke-width="0.6"/><polygon points="699.1,204.0 285.1,443.0 285.1,417.0 699.1,178.0" fill="#b4b4b4" stroke="#000000" stroke-width="0.6"/><polygon points="796.1,234.0 803.0,238.0 389.0,477.0 382.1,473.0" fill="#e4e4e4" stroke="#000000" stroke-width="0.6"/><polygon points="382.1,499.0 389.0,503.0 389.0,477.0 382.1,473.0" fill="#c8c8c8" stroke="#000000" stroke-width="0.6"/><polygon points="803.0,264.0 389.0,503.0 389.0,477.0 803.0,238.0" fill="#b4b4b4" stroke="#000000" stroke-width="0.6"/><polygon points="900.0,294.0 906.9,298.0 493.0,537.0 486.0,533.0" fill="#e4e4e4" stroke="#000000" stroke-width="0.6"/><polygon points="486.0,559.0 493.0,563.0 493.0,537.0 486.0,533.0" fill="#c8c8c8" stroke="#000000" stroke-width="0.6"/><polygon points="906.9,324.0 493.0,563.0 493.0,537.0 906.9,298.0" fill="#b4b4b4" stroke="#000000" stroke-width="0.6"/><polygon points="1003.9,354.0 1010.9,358.0 596.9,597.0 590.0,593.0" fill="#e4e4e4" stroke="#000000" stroke-width="0.6"/><polygon points="590.0,619.0 596.9,623.0 596.9,597.0 590.0,593.0" fill="#c8c8c8" stroke="#000000" stroke-width="0.6"/><polygon points="1010.9,384.0 596.9,623.0 596.9,597.0 1010.9,358.0" fill="#b4b4b4" stroke="#000000" stroke-width="0.6"/><polygon points="1107.8,414.0 1114.8,418.0 700.8,657.0 693.9,653.0" fill="#e4e4e4" stroke="#000000" stroke-width="0.6"/><polygon points="693.9,679.0 700.8,683.0 700.8,657.0 693.9,653.0" fill="#c8c8c8" stroke="#000000" stroke-width="0.6"/><polygon points="1114.8,444.0 700.8,683.0 700.8,657.0 1114.8,418.0" fill="#b4b4b4" stroke="#000000" stroke-width="0.6"/><polygon points="1211.8,474.0 1218.7,478.0 804.7,717.0 797.8,713.0" fill="#e4e4e4" stroke="#000000" stroke-width="0.6"/><polygon points="797.8,739.0 804.7,743.0 804.7,717.0 797.8,713.0" fill="#c8c8c8" stroke="#000000" stroke-width="0.6"/><polygon points="1218.7,504.0 804.7,743.0 804.7,717.0 1218.7,478.0" fill="#b4b4b4" stroke="#000000" stroke-width="0.6"/><polygon points="1315.7,534.0 1322.6,538.0 908.7,777.0 901.7,773.0" fill="#e4e4e4" stroke="#000000" stroke-width="0.6"/><polygon points="901.7,799.0 908.7,803.0 908.7,777.0 901.7,773.0" fill="#c8c8c8" stroke="#000000" stroke-width="0.6"/><polygon points="1322.6,564.0 908.7,803.0 908.7,777.0 1322.6,538.0" fill="#b4b4b4" stroke="#000000" stroke-width="0.6"/><polygon points="1419.6,594.0 1426.5,598.0 1012.6,837.0 1005.7,833.0" fill="#e4e4e4" stroke="#000000" stroke-width="0.6"/><polygon points="1005.7,859.0 1012.6,863.0 1012.6,837.0 1005.7,833.0" fill="#c8c8c8" stroke="#000000" stroke-width="0.6"/><polygon points="1426.5,624.0 1012.6,863.0 1012.6,837.0 1426.5,598.0" fill="#b4b4b4" stroke="#000000" stroke-width="0.6"/><polygon points="1523.5,654.0 1530.5,658.0 1116.5,897.0 1109.6,893.0" fill="#e4e4e4" stroke="#000000" stroke-width="0.6"/><polygon points="1109.6,919.0 1116.5,923.0 1116.5,897.0 1109.6,893.0" fill="#c8c8c8" stroke="#000000" stroke-width="0.6"/><polygon points="1530.5,684.0 1116.5,923.0 1116.5,897.0 1530.5,658.0" fill="#b4b4b4" stroke="#000000" stroke-width="0.6"/><polygon points="493.0,399.0 1393.6,919.0 1371.1,932.0 470.5,412.0" fill="#cfe3ea" stroke="#000000" stroke-width="1"/><polygon points="470.5,438.0 1371.1,958.0 1371.1,932.0 470.5,412.0" fill="#a9c8d3" stroke="#000000" stroke-width="1"/><polygon points="1393.6,945.0 1371.1,958.0 1371.1,932.0 1393.6,919.0" fill="#8fb4c1" stroke="#000000" stroke-width="1"/><polygon points="588.2,336.0 917.3,526.0 865.4,556.0 536.3,366.0" fill="#f2f2f2" stroke="#000000" stroke-width="0.8"/><polygon points="536.3,370.0 865.4,560.0 865.4,556.0 536.3,366.0" fill="#d8d8d8" stroke="#000000" stroke-width="0.8"/><polygon points="917.3,530.0 865.4,560.0 865.4,556.0 917.3,526.0" fill="#c4c4c4" stroke="#000000" stroke-width="0.8"/><polygon points="588.2,326.0 917.3,516.0 914.7,517.5 585.6,327.5" fill="#bfbfbf" stroke="#000000" stroke-width="0.8"/><polygon points="585.6,341.5 914.7,531.5 914.7,517.5 585.6,327.5" fill="#a6a6a6" stroke="#000000" stroke-width="0.8"/><polygon points="917.3,530.0 914.7,531.5 914.7,517.5 917.3,516.0" fill="#999" stroke="#000000" stroke-width="0.8"/><polygon points="538.9,354.5 868.0,544.5 865.4,546.0 536.3,356.0" fill="#bfbfbf" stroke="#000000" stroke-width="0.8"/><polygon points="536.3,370.0 865.4,560.0 865.4,546.0 536.3,356.0" fill="#a6a6a6" stroke="#000000" stroke-width="0.8"/><polygon points="868.0,558.5 865.4,560.0 865.4,546.0 868.0,544.5" fill="#999" stroke="#000000" stroke-width="0.8"/><polygon points="917.3,616.0 969.3,646.0 917.3,676.0 865.4,646.0" fill="#f2f2f2" stroke="#000000" stroke-width="0.8"/><polygon points="865.4,650.0 917.3,680.0 917.3,676.0 865.4,646.0" fill="#d8d8d8" stroke="#000000" stroke-width="0.8"/><polygon points="969.3,650.0 917.3,680.0 917.3,676.0 969.3,646.0" fill="#c4c4c4" stroke="#000000" stroke-width="0.8"/><polygon points="917.3,606.0 969.3,636.0 966.7,637.5 914.7,607.5" fill="#bfbfbf" stroke="#000000" stroke-width="0.8"/><polygon points="914.7,621.5 966.7,651.5 966.7,637.5 914.7,607.5" fill="#a6a6a6" stroke="#000000" stroke-width="0.8"/><polygon points="969.3,650.0 966.7,651.5 966.7,637.5 969.3,636.0" fill="#999" stroke="#000000" stroke-width="0.8"/><polygon points="868.0,634.5 919.9,664.5 917.3,666.0 865.4,636.0" fill="#bfbfbf" stroke="#000000" stroke-width="0.8"/><polygon points="865.4,650.0 917.3,680.0 917.3,666.0 865.4,636.0" fill="#a6a6a6" stroke="#000000" stroke-width="0.8"/><polygon points="919.9,678.5 917.3,680.0 917.3,666.0 919.9,664.5" fill="#999" stroke="#000000" stroke-width="0.8"/><polygon points="969.3,556.0 1419.6,816.0 1367.7,846.0 917.3,586.0" fill="#f2f2f2" stroke="#000000" stroke-width="0.8"/><polygon points="917.3,590.0 1367.7,850.0 1367.7,846.0 917.3,586.0" fill="#d8d8d8" stroke="#000000" stroke-width="0.8"/><polygon points="1419.6,820.0 1367.7,850.0 1367.7,846.0 1419.6,816.0" fill="#c4c4c4" stroke="#000000" stroke-width="0.8"/><polygon points="969.3,546.0 1419.6,806.0 1417.0,807.5 966.7,547.5" fill="#bfbfbf" stroke="#000000" stroke-width="0.8"/><polygon points="966.7,561.5 1417.0,821.5 1417.0,807.5 966.7,547.5" fill="#a6a6a6" stroke="#000000" stroke-width="0.8"/><polygon points="1419.6,820.0 1417.0,821.5 1417.0,807.5 1419.6,806.0" fill="#999" stroke="#000000" stroke-width="0.8"/><polygon points="919.9,574.5 1370.3,834.5 1367.7,836.0 917.3,576.0" fill="#bfbfbf" stroke="#000000" stroke-width="0.8"/><polygon points="917.3,590.0 1367.7,850.0 1367.7,836.0 917.3,576.0" fill="#a6a6a6" stroke="#000000" stroke-width="0.8"/><polygon points="1370.3,848.5 1367.7,850.0 1367.7,836.0 1370.3,834.5" fill="#999" stroke="#000000" stroke-width="0.8"/><line x1="648.9" y1="365.0" x2="648.9" y2="265.0" stroke="#000000" stroke-width="1.2"/><line x1="579.6" y1="405.0" x2="579.6" y2="305.0" stroke="#000000" stroke-width="1.2"/><line x1="648.9" y1="369.0" x2="579.6" y2="409.0" stroke="#000000" stroke-width="3"/><line x1="804.7" y1="455.0" x2="804.7" y2="355.0" stroke="#000000" stroke-width="1.2"/><line x1="735.5" y1="495.0" x2="735.5" y2="395.0" stroke="#000000" stroke-width="1.2"/><line x1="804.7" y1="459.0" x2="735.5" y2="499.0" stroke="#000000" stroke-width="3"/><line x1="952.0" y1="630.0" x2="952.0" y2="440.0" stroke="#000000" stroke-width="1.2"/><line x1="882.7" y1="670.0" x2="882.7" y2="480.0" stroke="#000000" stroke-width="1.2"/><line x1="952.0" y1="634.0" x2="882.7" y2="674.0" stroke="#000000" stroke-width="3"/><line x1="1116.5" y1="635.0" x2="1116.5" y2="535.0" stroke="#000000" stroke-width="1.2"/><line x1="1047.2" y1="675.0" x2="1047.2" y2="575.0" stroke="#000000" stroke-width="1.2"/><line x1="1116.5" y1="639.0" x2="1047.2" y2="679.0" stroke="#000000" stroke-width="3"/><line x1="1289.7" y1="735.0" x2="1289.7" y2="635.0" stroke="#000000" stroke-width="1.2"/><line x1="1220.4" y1="775.0" x2="1220.4" y2="675.0" stroke="#000000" stroke-width="1.2"/><line x1="1289.7" y1="739.0" x2="1220.4" y2="779.0" stroke="#000000" stroke-width="3"/><line x1="380.4" y1="430.0" x2="1263.7" y2="940.0" stroke="#555" stroke-width="3"/><line x1="370.0" y1="436.0" x2="1253.3" y2="946.0" stroke="#555" stroke-width="3"/><line x1="359.6" y1="442.0" x2="1242.9" y2="952.0" stroke="#555" stroke-width="3"/><line x1="917.3" y1="646.0" x2="1300.0" y2="940.0" stroke="#000000" stroke-width="0.8"/><circle cx="917.3" cy="646.0" r="3.0" fill="#000000" stroke="#000000" stroke-width="1"/><text x="1306.0" y="944.0" font-family="'Arial Narrow', Arial, Helvetica, sans-serif" font-size="13" font-weight="normal" text-anchor="start" fill="#000000">CT-1 OFFSET DOWN 1'-6&quot; UNDER PROCESS WATER (CLASH CT-PW-07 RESOLVED)</text><line x1="588.2" y1="464.0" x2="300.0" y2="520.0" stroke="#000000" stroke-width="0.8"/><circle cx="588.2" cy="464.0" r="3.0" fill="#000000" stroke="#000000" stroke-width="1"/><text x="294.0" y="524.0" font-family="'Arial Narrow', Arial, Helvetica, sans-serif" font-size="13" font-weight="normal" text-anchor="end" fill="#000000">6&quot; PROCESS WATER (BY OTHERS)</text><line x1="1116.5" y1="585.0" x2="1320.0" y2="560.0" stroke="#000000" stroke-width="0.8"/><circle cx="1116.5" cy="585.0" r="3.0" fill="#000000" stroke="#000000" stroke-width="1"/><text x="1326.0" y="564.0" font-family="'Arial Narrow', Arial, Helvetica, sans-serif" font-size="13" font-weight="normal" text-anchor="start" fill="#000000">TRAPEZE HANGER, 1/2&quot; ALL-THREAD, 8'-0&quot; O.C.</text><line x1="1445.6" y1="645.0" x2="1340.0" y2="420.0" stroke="#000000" stroke-width="0.8"/><circle cx="1445.6" cy="645.0" r="3.0" fill="#000000" stroke="#000000" stroke-width="1"/><text x="1334.0" y="424.0" font-family="'Arial Narrow', Arial, Helvetica, sans-serif" font-size="13" font-weight="normal" text-anchor="end" fill="#000000">W16x31 STEEL BEAM, TOS +17'-0&quot;</text><line x1="543.2" y1="536.0" x2="260.0" y2="1010.0" stroke="#000000" stroke-width="0.8"/><circle cx="543.2" cy="536.0" r="3.0" fill="#000000" stroke="#000000" stroke-width="1"/><text x="254.0" y="1014.0" font-family="'Arial Narrow', Arial, Helvetica, sans-serif" font-size="13" font-weight="normal" text-anchor="end" fill="#000000">(3) 2&quot; EMT FEEDERS TO MCC-1</text><circle cx="90.0" cy="1300.0" r="22.0" fill="none" stroke="#000000" stroke-width="1.6"/><line x1="68.0" y1="1300.0" x2="112.0" y2="1300.0" stroke="#000000" stroke-width="1"/><text x="90.0" y="1295.0" font-family="Arial, Helvetica, sans-serif" font-size="14" font-weight="bold" text-anchor="middle" fill="#000000">1</text><text x="90.0" y="1316.0" font-family="Arial, Helvetica, sans-serif" font-size="10" font-weight="normal" text-anchor="middle" fill="#000000">E-701</text><line x1="112.0" y1="1300.0" x2="672.0" y2="1300.0" stroke="#000000" stroke-width="3"/><text x="124.0" y="1292.0" font-family="Arial, Helvetica, sans-serif" font-size="18" font-weight="bold" text-anchor="start" fill="#000000">3D VIEW - CABLE TRAY COORDINATION</text><text x="124.0" y="1320.0" font-family="Arial, Helvetica, sans-serif" font-size="12" font-weight="normal" text-anchor="start" fill="#000000">SCALE: NTS</text></g>
<line x1="1850.0" y1="32.0" x2="1850.0" y2="1392.0" stroke="#000000" stroke-width="3"/>
<text x="1870.0" y="76.0" font-family="Arial, Helvetica, sans-serif" font-size="22" font-weight="bold" text-anchor="start" fill="#000000">HARRISON FARBER</text><text x="1870.0" y="100.0" font-family="Arial, Helvetica, sans-serif" font-size="13" font-weight="normal" text-anchor="start" fill="#000000">BIM DESIGNER / COORDINATOR</text><text x="1870.0" y="124.0" font-family="Arial, Helvetica, sans-serif" font-size="12" font-weight="normal" text-anchor="start" fill="#6b6b6b">OVERLAND PARK, KANSAS</text><text x="1870.0" y="144.0" font-family="Arial, Helvetica, sans-serif" font-size="12" font-weight="normal" text-anchor="start" fill="#6b6b6b">harrisonfarber38@gmail.com</text><line x1="1850.0" y1="162.0" x2="2168.0" y2="162.0" stroke="#000000" stroke-width="1.5"/>
<text x="1870.0" y="186.0" font-family="Arial, Helvetica, sans-serif" font-size="10" font-weight="normal" text-anchor="start" fill="#6b6b6b">CONSULTANT</text><text x="1870.0" y="214.0" font-family="Arial, Helvetica, sans-serif" font-size="15" font-weight="bold" text-anchor="start" fill="#000000">ELECTRICAL BIM</text><text x="1870.0" y="236.0" font-family="Arial, Helvetica, sans-serif" font-size="12" font-weight="normal" text-anchor="start" fill="#000000">REVIT  ·  NAVISWORKS MANAGE</text><line x1="1850.0" y1="252.0" x2="2168.0" y2="252.0" stroke="#000000" stroke-width="1.5"/>
<text x="1870.0" y="276.0" font-family="Arial, Helvetica, sans-serif" font-size="10" font-weight="normal" text-anchor="start" fill="#6b6b6b">PROJECT</text><text x="1870.0" y="306.0" font-family="Arial, Helvetica, sans-serif" font-size="16" font-weight="bold" text-anchor="start" fill="#000000">LIGHT-INDUSTRIAL</text><text x="1870.0" y="330.0" font-family="Arial, Helvetica, sans-serif" font-size="16" font-weight="bold" text-anchor="start" fill="#000000">PRODUCTION FACILITY</text><text x="1870.0" y="354.0" font-family="Arial, Helvetica, sans-serif" font-size="16" font-weight="bold" text-anchor="start" fill="#000000">ELECTRICAL DISTRIBUTION</text><line x1="1850.0" y1="402.0" x2="2168.0" y2="402.0" stroke="#000000" stroke-width="1.5"/>
<rect x="1870.0" y="420.0" width="278.0" height="134.0" fill="none" stroke="#d62020" stroke-width="2"/><text x="2009.0" y="462.0" font-family="Arial, Helvetica, sans-serif" font-size="22" font-weight="bold" text-anchor="middle" fill="#d62020">NOT FOR</text><text x="2009.0" y="490.0" font-family="Arial, Helvetica, sans-serif" font-size="22" font-weight="bold" text-anchor="middle" fill="#d62020">CONSTRUCTION</text><text x="2009.0" y="524.0" font-family="Arial, Helvetica, sans-serif" font-size="13" font-weight="bold" text-anchor="middle" fill="#d62020">ISSUED FOR REVIEW</text><line x1="1850.0" y1="572.0" x2="2168.0" y2="572.0" stroke="#000000" stroke-width="1.5"/>
<text x="1870.0" y="594.0" font-family="Arial, Helvetica, sans-serif" font-size="10" font-weight="normal" text-anchor="start" fill="#6b6b6b">REVISIONS</text><polygon points="1880.0,606.0 1892.0,624.0 1868.0,624.0" fill="none" stroke="#000000" stroke-width="1"/><text x="1880.0" y="621.0" font-family="Arial, Helvetica, sans-serif" font-size="10" font-weight="bold" text-anchor="middle" fill="#000000">1</text><text x="1906.0" y="620.0" font-family="Arial, Helvetica, sans-serif" font-size="11" font-weight="normal" text-anchor="start" fill="#000000">2025-05-02</text><text x="2000.0" y="620.0" font-family="Arial, Helvetica, sans-serif" font-size="11" font-weight="normal" text-anchor="start" fill="#000000">COORDINATION ISSUE</text><polygon points="1880.0,630.0 1892.0,648.0 1868.0,648.0" fill="none" stroke="#000000" stroke-width="1"/><text x="1880.0" y="645.0" font-family="Arial, Helvetica, sans-serif" font-size="10" font-weight="bold" text-anchor="middle" fill="#000000">2</text><text x="1906.0" y="644.0" font-family="Arial, Helvetica, sans-serif" font-size="11" font-weight="normal" text-anchor="start" fill="#000000">2025-06-12</text><text x="2000.0" y="644.0" font-family="Arial, Helvetica, sans-serif" font-size="11" font-weight="normal" text-anchor="start" fill="#000000">ISSUED FOR REVIEW</text><line x1="1850.0" y1="682.0" x2="2168.0" y2="682.0" stroke="#000000" stroke-width="1.5"/>
<text x="1864.0" y="702.0" font-family="Arial, Helvetica, sans-serif" font-size="10" font-weight="normal" text-anchor="start" fill="#6b6b6b">DATE</text><text x="1864.0" y="724.0" font-family="Arial, Helvetica, sans-serif" font-size="13" font-weight="bold" text-anchor="start" fill="#000000">2025-06-12</text><line x1="2009.0" y1="682.0" x2="2009.0" y2="736.0" stroke="#000000" stroke-width="1"/><line x1="1850.0" y1="736.0" x2="2168.0" y2="736.0" stroke="#000000" stroke-width="0.8"/><text x="2023.0" y="702.0" font-family="Arial, Helvetica, sans-serif" font-size="10" font-weight="normal" text-anchor="start" fill="#6b6b6b">SCALE</text><text x="2023.0" y="724.0" font-family="Arial, Helvetica, sans-serif" font-size="13" font-weight="bold" text-anchor="start" fill="#000000">NTS</text><line x1="1850.0" y1="736.0" x2="2168.0" y2="736.0" stroke="#000000" stroke-width="0.8"/><text x="1864.0" y="756.0" font-family="Arial, Helvetica, sans-serif" font-size="10" font-weight="normal" text-anchor="start" fill="#6b6b6b">DRAWN BY</text><text x="1864.0" y="778.0" font-family="Arial, Helvetica, sans-serif" font-size="13" font-weight="bold" text-anchor="start" fill="#000000">HF</text><line x1="2009.0" y1="736.0" x2="2009.0" y2="790.0" stroke="#000000" stroke-width="1"/><line x1="1850.0" y1="790.0" x2="2168.0" y2="790.0" stroke="#000000" stroke-width="0.8"/><text x="2023.0" y="756.0" font-family="Arial, Helvetica, sans-serif" font-size="10" font-weight="normal" text-anchor="start" fill="#6b6b6b">CHECKED BY</text><text x="2023.0" y="778.0" font-family="Arial, Helvetica, sans-serif" font-size="13" font-weight="bold" text-anchor="start" fill="#000000">HF</text><line x1="1850.0" y1="790.0" x2="2168.0" y2="790.0" stroke="#000000" stroke-width="0.8"/><text x="1864.0" y="810.0" font-family="Arial, Helvetica, sans-serif" font-size="10" font-weight="normal" text-anchor="start" fill="#6b6b6b">PROJECT NO.</text><text x="1864.0" y="832.0" font-family="Arial, Helvetica, sans-serif" font-size="13" font-weight="bold" text-anchor="start" fill="#000000">25-014</text><line x1="2009.0" y1="790.0" x2="2009.0" y2="844.0" stroke="#000000" stroke-width="1"/><line x1="1850.0" y1="844.0" x2="2168.0" y2="844.0" stroke="#000000" stroke-width="0.8"/><text x="2023.0" y="810.0" font-family="Arial, Helvetica, sans-serif" font-size="10" font-weight="normal" text-anchor="start" fill="#6b6b6b">MODEL</text><text x="2023.0" y="832.0" font-family="Arial, Helvetica, sans-serif" font-size="13" font-weight="bold" text-anchor="start" fill="#000000">LOD 350</text><line x1="1850.0" y1="844.0" x2="2168.0" y2="844.0" stroke="#000000" stroke-width="0.8"/>
<line x1="1850.0" y1="1194.0" x2="2168.0" y2="1194.0" stroke="#000000" stroke-width="1.5"/>
<text x="1870.0" y="1220.0" font-family="Arial, Helvetica, sans-serif" font-size="10" font-weight="normal" text-anchor="start" fill="#6b6b6b">SHEET TITLE</text>
<text x="1870.0" y="1250.0" font-family="Arial, Helvetica, sans-serif" font-size="16" font-weight="bold" text-anchor="start" fill="#000000">3D VIEWS</text>
<text x="1870.0" y="1274.0" font-family="Arial, Helvetica, sans-serif" font-size="16" font-weight="bold" text-anchor="start" fill="#000000">CABLE TRAY COORDINATION</text>
<line x1="1850.0" y1="1304.0" x2="2168.0" y2="1304.0" stroke="#000000" stroke-width="1.5"/>
<text x="1870.0" y="1328.0" font-family="Arial, Helvetica, sans-serif" font-size="10" font-weight="normal" text-anchor="start" fill="#6b6b6b">SHEET NUMBER</text>
<text x="2009.0" y="1378.0" font-family="Arial, Helvetica, sans-serif" font-size="52" font-weight="bold" text-anchor="middle" fill="#000000">E-701</text>
</svg>